<svg xmlns="http://www.w3.org/2000/svg" viewBox="0 0 1155.7 199.5"><defs><style>.a{fill:#fff;}.b{fill:#f9a533;}.c{fill:#cc742c;}.d{fill:#f9c652;}.e{fill:#323031;}</style></defs><path class="a" d="M45.1,53.4c-1.9-2.8-.4-7.1-.4-7.1L54.4,22v-.2c1.6-4.5,5.2-7.7,10.8-9.5a29.9,29.9,0,0,1,8.9-1.4h29.1L107.8.1H74.5A38.4,38.4,0,0,0,62.3,1.8c-9,2.8-15.2,8.4-18,16.3L34.6,42.3c-.3.9-3.6,9.7,1.4,17.1,3.8,5.6,10.8,8.4,20.9,8.4H84.7l4.4-10.9H56.9c-6.1,0-10.2-1.2-11.8-3.5"/><path class="a" d="M160.1,28.5H123.8a2,2,0,0,1-1.8-2,.9.9,0,0,1,.1-.5h0a5.7,5.7,0,0,1,.4-1.4l2.6-6.4c1.2-3,3.6-5,7.3-6.2a22.9,22.9,0,0,1,6.1-1h40.7L183.5.1H138.8c-1.9,0-18.2,0-23.8,14l-2.4,6c-.6,1.4-3.3,8.2.2,13.7,1.6,2.6,5,5.6,12.2,5.6h35a2.7,2.7,0,0,1,2.8,2.8,2.2,2.2,0,0,1-.1.8c0,.1-.1.2-.1.3L160,49.7c-1.2,3-3.5,5-7.3,6.2a22.9,22.9,0,0,1-6.1,1H103.5L99.1,67.7h47.6c3,0,18.1-.6,23.4-14l2.4-6c.6-1.3,3.3-8.2-.2-13.7-1.6-2.6-5-5.5-12.2-5.5"/><path class="a" d="M282.6,6.1a13.6,13.6,0,0,0-10.5-6H257.8a20.7,20.7,0,0,0-13.9,5.2,14.3,14.3,0,0,0-10-5.2H219.6c-14.1,0-20.1,13-20.4,13.6h-.1L177.6,67.7h11.8l19.7-49.6c.5-.8,3.9-7.2,10.5-7.2h13.3a3,3,0,0,1,2.5,1.3,5.6,5.6,0,0,1,.3,4.5c-1.8,5.8-15,38.6-20,51.1h11.9l19.7-49.6c.5-.8,3.9-7.2,10.5-7.2h13.3a3,3,0,0,1,2.5,1.3,5.6,5.6,0,0,1,.3,4.5c-1.8,5.8-15,38.6-20,51.1h11.7c.6-1.4,16.4-40.1,18.7-47.9,1.5-5,.9-10-1.7-13.7"/><polygon class="b" points="308.5 0 284.4 65.4 570.9 65.4 594.9 0 308.5 0"/><path class="a" d="M42.6,170.8v13.6H103c10.6-.1,19.2-6.3,19.2-24.4V147.6L91,110.5H42.6v20.8H27.4V95.4H103a34.3,34.3,0,0,1,34.4,34.2v35.7A34.3,34.3,0,0,1,103,199.5H27.4V170.8Z"/><path class="a" d="M216.6,198.9h-26A42.1,42.1,0,0,1,148.5,157V136.9A42.2,42.2,0,0,1,190.6,95h51.9a42.3,42.3,0,0,1,42.2,42v20.1A42.2,42.2,0,0,1,242.5,199Zm-26-81.8A20,20,0,0,0,170.7,137v20.1a19.9,19.9,0,0,0,19.9,19.8h51.9a19.9,19.9,0,0,0,19.9-19.8V137a20,20,0,0,0-19.9-19.9Z"/><path class="a" d="M514.5,198.9h-26A42.1,42.1,0,0,1,446.4,157V136.9A42.2,42.2,0,0,1,488.5,95h51.9a42.3,42.3,0,0,1,42.2,42v20.1A42.2,42.2,0,0,1,540.4,199Zm-26-81.8A20,20,0,0,0,468.6,137v20.1a19.9,19.9,0,0,0,19.9,19.8h51.9a19.9,19.9,0,0,0,19.9-19.8V137a20,20,0,0,0-19.9-19.9Z"/><path class="a" d="M434.4,157.1A42.2,42.2,0,0,1,392.2,199H340.3A42.1,42.1,0,0,1,298.2,157V136.9A42.2,42.2,0,0,1,340.3,95h51.9a42.3,42.3,0,0,1,42.2,42H412.1a20,20,0,0,0-19.9-19.9H340.3A20,20,0,0,0,320.4,137v20.1a19.9,19.9,0,0,0,19.9,19.8h51.9a19.9,19.9,0,0,0,19.9-19.8Z"/><path class="a" d="M634,197.7l-57.4-106h25l44.9,81.9,48.2-82.9h25L659,197.7Z"/><path class="a" d="M847.7,135v61.9H825.5v-5a42,42,0,0,1-19.9,5H753.7A42.2,42.2,0,0,1,711.5,155V134.9A42.2,42.2,0,0,1,753.7,93h51.9A42.2,42.2,0,0,1,847.7,135Zm-22.2,0a19.9,19.9,0,0,0-19.9-19.9H753.7a19.9,19.9,0,0,0-19.9,19.8V155a19.9,19.9,0,0,0,19.9,19.8h51.9A19.9,19.9,0,0,0,825.5,155Z"/><path class="a" d="M985.4,145.7v52H963.1v-5.1a41.8,41.8,0,0,1-19.9,5.1H900a42.1,42.1,0,0,1-42.1-41.9v-62h22.2v62A19.9,19.9,0,0,0,900,175.6h43.2a20,20,0,0,0,20-19.8v-62h22.2Z"/><path class="a" d="M1004.2,197.7V67.1h22.2V197.7Z"/><path class="a" d="M1087.6,197.7a42.2,42.2,0,0,1-42.2-41.9V67.1h22.2V93.8h47.1v22.1h-47.1v39.9a20,20,0,0,0,20,19.8h25.9a20,20,0,0,0,20-19.8V143.6h22.2v12.2a42.2,42.2,0,0,1-42.2,41.9Z"/><path class="b" d="M42.6,175.2v9.6h60.8c10.7,0,19.4-6.3,19.4-24.5V147.8L91.3,110.3H42.6v10.9"/><path class="c" d="M69.9,147.3H64.4a27.8,27.8,0,0,0-5.8-14.1l3.9-3.9a3,3,0,0,0,0-4.3,3.2,3.2,0,0,0-4.3,0l-3.9,3.9h0c-3.9-3.1-12-5.8-12-5.8v53.4c5.3-.6,8.1-1.7,12-4.8l3.9,3.9a3.2,3.2,0,0,0,4.3,0,3,3,0,0,0,0-4.3l-3.9-3.9a28.1,28.1,0,0,0,5.8-14.1h5.5a3,3,0,0,0,0-6Z"/><path class="a" d="M68.4,144.1H62.9A28.1,28.1,0,0,0,57.1,130l3.9-3.8a3,3,0,0,0-4.3-4.3l-3.9,3.9h0a27.1,27.1,0,0,0-14-5.9h-.1v-5.5a3,3,0,0,0-6,0v5.5a27.4,27.4,0,0,0-14.1,5.9h0l-3.9-3.9a2.9,2.9,0,0,0-4.2,0,3,3,0,0,0,0,4.3l3.8,3.8a28.1,28.1,0,0,0-5.8,14.1H3a3.1,3.1,0,0,0,0,6.1H8.5a27.1,27.1,0,0,0,5.9,14l-3.9,3.9a3,3,0,0,0,0,4.3,2.9,2.9,0,0,0,4.2,0l3.9-3.9a27.3,27.3,0,0,0,14.1,5.8v5.5a3,3,0,0,0,6,0v-5.5h.1a26.1,26.1,0,0,0,14-5.8l3.9,3.9a3,3,0,1,0,4.3-4.3l-3.9-3.9a27.8,27.8,0,0,0,5.8-14h5.5a3.1,3.1,0,0,0,0-6.1Z"/><path class="c" d="M90.6,110.5l-5.3,23.8c-2.7,10.2,4.6,19.4,15.7,18l20.8-4v-.7L90.6,110.5Z"/><path class="d" d="M90.6,110.5l-2.4,19.6c-1.2,9.1,2.6,18.2,13.9,17.9l19.7-.4Z"/><path class="e" d="M38.1,152.5V157a3.3,3.3,0,0,1-3.3,3.3,3.3,3.3,0,0,1-3.3-3.3v-4.5a9.3,9.3,0,0,1-5.8-8.5,9.1,9.1,0,0,1,18.2,0A9.2,9.2,0,0,1,38.1,152.5Z"/></svg>