<?xml version="1.0" encoding="utf-8"?>
<!-- Generator: Adobe Illustrator 26.5.3, SVG Export Plug-In . SVG Version: 6.00 Build 0)  -->
<svg version="1.1" id="Layer_1" xmlns="http://www.w3.org/2000/svg" xmlns:xlink="http://www.w3.org/1999/xlink" x="0px" y="0px"
	 viewBox="0 0 348 339.3" style="enable-background:new 0 0 348 339.3;" xml:space="preserve">
<g>
	<path d="M113.1,233.3l-30.2,91.4c-2.9,8.7-11,14.6-20.2,14.6c-14.5,0-24.8-14.3-20.1-28.1l96.5-284.1c5.1-14.9,19-24.9,34.7-24.9
		s29.6,10,34.7,24.8l96.9,284.1c4.7,13.8-5.5,28.1-20.1,28.1h-1.6c-9.1,0-17.2-5.8-20.1-14.4l-31.1-91.6H113.1V233.3z M223.6,199.3
		l-33-97c-7.5-22-12.5-42-17.5-61.5h-1c-5,20-10.5,40.5-17,61l-33,97.5H223.6z"/>
</g>
</svg>
